<?xml version="1.0" encoding="UTF-8" standalone="no"?>
<!-- Created with Inkscape (http://www.inkscape.org/) -->

<svg
   width="12.681388mm"
   height="16.933334mm"
   viewBox="0 0 12.681388 16.933334"
   version="1.1"
   id="svg1"
   xml:space="preserve"
   xmlns="http://www.w3.org/2000/svg"
   xmlns:svg="http://www.w3.org/2000/svg"><defs
     id="defs1" /><g
     id="layer1"
     transform="translate(-68.820897,-55.764683)"><path
       style="fill:#000000;stroke-width:0.0423383"
       d="m 73.819143,72.698009 c -0.610926,-0.06033 -1.207457,-0.213365 -1.825933,-0.226875 -0.686317,-0.119783 -1.378322,-0.258252 -2.047288,-0.453936 -0.410293,-0.224853 -0.757949,-0.523885 -0.982002,-0.941204 -0.212129,-0.697943 -0.261022,-1.633418 0.371907,-2.130176 0.427891,-0.261907 0.908425,-0.585525 1.435652,-0.340456 0.432622,0.173562 0.971935,0.417729 0.957384,-0.255245 -0.537167,-0.546092 -1.068638,-1.193103 -1.169048,-1.987665 -0.05692,-0.610646 -0.499885,-0.924432 -0.891028,-1.367633 -0.646932,-0.824498 -0.960459,-1.894222 -0.806365,-2.939707 0.0574,-1.535065 0.470512,-3.061695 1.256003,-4.384395 0.352088,-0.657822 0.854768,-1.274459 1.578036,-1.536563 0.534223,-0.393127 1.205634,-0.364017 1.839318,-0.36501 1.567786,-0.05209 3.125521,0.355786 4.546798,0.992009 0.919208,0.477504 1.820827,1.041875 2.541807,1.79043 0.474684,0.593067 0.951172,1.285977 0.868497,2.086969 -0.03035,1.069751 -0.395903,2.096157 -0.705316,3.111749 -0.305587,0.82473 -0.541049,1.708325 -1.076161,2.419196 -0.719509,0.916051 -1.92111,1.30069 -3.046955,1.328012 -0.565324,-0.109395 -0.57793,0.653601 -0.173633,0.879544 0.218451,0.385092 0.662404,0.55358 0.84532,0.965423 0.218841,0.277835 0.151224,0.578047 0.12106,0.890725 -0.146421,0.608153 -0.846072,0.763601 -1.207224,1.207425 -0.483362,0.661402 -1.3897,-0.291496 -0.554501,-0.50409 0.337853,-0.196313 0.614322,-0.497747 0.95238,-0.705729 0.322169,-0.267218 0.02866,-0.775811 -0.287406,-0.912968 -0.218738,-0.13417 -0.420894,-0.688073 -0.60396,-0.603976 -0.28428,0.770581 -0.374726,1.58969 -0.606732,2.374288 -0.238286,0.363305 -0.155508,0.811769 -0.202018,1.192802 -0.06016,0.538971 -0.752347,0.386824 -1.128592,0.417056 z m 0.397674,-0.67488 c 0.07903,-0.584291 0.279244,-1.259733 0.441953,-1.876343 0.151854,-0.756363 0.307999,-1.536377 0.700654,-2.20862 -0.146555,-0.263544 0.376192,-0.614263 -0.236363,-0.514045 -0.639228,-0.107678 -1.403896,-0.531974 -1.844106,0.09423 -0.643782,0.407455 -0.811974,1.261917 -1.254313,1.861169 -0.05647,0.725595 -0.796208,0.585208 -1.017264,0.04499 -0.497854,-0.382821 -1.232358,-0.175381 -1.456391,0.391821 -0.186771,0.70108 0.17435,1.504181 0.924346,1.639768 0.84643,0.188317 1.690486,0.388973 2.561141,0.421002 0.387746,0.107818 0.7799,0.138125 1.180343,0.14603 z m -2.062824,-4.379187 c 0.02115,-0.298874 0.696848,-0.571166 0.516943,-0.689737 -0.467732,-0.157761 -0.945444,-0.326776 -1.372948,-0.572392 -0.08799,0.163764 0.157756,0.390908 0.207609,0.577993 0.17894,0.282422 0.389686,0.545585 0.622039,0.784413 0.0076,-0.03374 0.0075,-0.06943 0.02634,-0.100277 z m 4.919347,-0.851013 c 1.052633,-0.120655 2.141042,-0.691844 2.498076,-1.749994 0.55191,-1.350959 1.038737,-2.752573 1.24146,-4.201904 0.122476,-0.810999 -0.38925,-1.536306 -0.933952,-2.07854 -1.179324,-1.016749 -2.595011,-1.755403 -4.122589,-2.076237 -0.855659,-0.218415 -1.74393,-0.298193 -2.619841,-0.175129 -0.786274,-0.09094 -1.628452,0.216388 -2.044122,0.918393 -1.004238,1.357704 -1.488458,3.048416 -1.55877,4.724328 -0.205062,1.371701 0.610369,2.715689 1.774063,3.397848 1.192634,0.793998 2.65143,1.033379 4.044803,1.224523 0.569284,0.06032 1.149186,0.02827 1.720872,0.01673 z m -2.828517,-1.884151 c -1.012705,-0.09452 -1.963885,-0.606035 -2.619426,-1.381231 -0.48261,-0.481437 -0.789968,-1.260014 -0.516349,-1.917565 0.933869,-0.490195 0.332826,1.017773 0.925137,1.36163 0.681935,0.852348 1.768536,1.367783 2.865826,1.258813 0.786783,0.101777 1.491327,-0.380163 1.835043,-1.062511 0.256056,-0.811664 1.248372,-0.07534 0.545525,0.40271 -0.360046,0.686451 -1.027788,1.227031 -1.812173,1.318182 -0.4071,0.02437 -0.815876,0.02788 -1.223583,0.02 z m 2.285216,-4.15399 c -0.98121,-0.278737 0.18968,-2.007789 0.76298,-1.154725 0.29998,0.515258 -0.197684,1.205851 -0.76298,1.154725 z m -3.158975,-0.818336 c -1.013643,0.03413 -0.246632,-1.674558 0.407697,-1.073102 0.352019,0.324263 0.177452,1.185276 -0.407697,1.073102 z"
       id="path10-0" /></g></svg>
